<svg width="167" height="47" viewBox="0 0 167 47" fill="none" xmlns="http://www.w3.org/2000/svg">
<path d="M38.6124 16.45C39.0679 16.45 39.2197 16.6246 39.2197 17.0946V27.73H44.3689C44.8117 27.73 44.9762 27.9046 44.9762 28.3746V29.3146C44.9762 29.7846 44.8117 29.9592 44.3689 29.9592H37.5877C37.1449 29.9592 36.9677 29.7846 36.9677 29.3146V17.0946C36.9677 16.6246 37.1449 16.45 37.5877 16.45H38.6124Z" fill="#394149"/>
<path d="M49.4674 21.1365C49.4674 18.0345 51.3146 16.168 54.528 16.168C57.7415 16.168 59.5886 18.0345 59.5886 21.1365V25.2725C59.5886 28.3745 57.7289 30.2411 54.528 30.2411C51.3272 30.2411 49.4674 28.3745 49.4674 25.2725V21.1365ZM57.4632 21.1365C57.4632 19.3908 56.4384 18.4508 54.5913 18.4508C52.7442 18.4508 51.7321 19.4043 51.7321 21.1365V25.2994C51.7321 27.0585 52.7442 27.9851 54.5913 27.9851C56.4384 27.9851 57.4632 27.0183 57.4632 25.2994V21.1365Z" fill="#394149"/>
<path d="M74.6566 22.56C75.15 22.56 75.2639 22.7345 75.2639 23.2045V25.756C75.2773 26.3569 75.1638 26.9535 74.9318 27.5018C74.6996 28.0502 74.355 28.5365 73.9228 28.9251C72.8496 29.8322 71.4964 30.2822 70.1273 30.1874C66.8506 30.1874 65.0667 28.3208 65.0667 25.2188V21.056C65.0667 17.9943 66.9139 16.1143 70.1273 16.1143C72.6577 16.1143 74.3023 17.1751 74.9982 19.2968C75.0371 19.3766 75.058 19.4648 75.0592 19.5545C75.0603 19.6444 75.0417 19.7333 75.0049 19.814C74.9681 19.8948 74.9139 19.9654 74.8469 20.0202C74.7798 20.0749 74.7016 20.1123 74.6186 20.1294L73.6318 20.492C73.2017 20.6531 73.0245 20.5591 72.8727 20.0891C72.6631 19.5156 72.2794 19.0324 71.7822 18.7163C71.285 18.4002 70.7027 18.2689 70.1273 18.3434C68.2676 18.3434 67.2555 19.2968 67.2555 21.0291V25.2994C67.2555 27.0585 68.2802 27.9851 70.1273 27.9851C71.9745 27.9851 73.1131 27.0854 73.1131 25.7694V24.7757H70.3677C69.9123 24.7757 69.7478 24.5877 69.7478 24.1177V23.2045C69.7478 22.7345 69.9123 22.56 70.3677 22.56H74.6566Z" fill="#394149"/>
<path d="M80.4889 21.1365C80.4889 18.0345 82.336 16.168 85.5495 16.168C88.763 16.168 90.6101 18.0345 90.6101 21.1365V25.2725C90.6101 28.3745 88.7504 30.2411 85.5495 30.2411C82.3487 30.2411 80.4889 28.3745 80.4889 25.2725V21.1365ZM88.472 21.1365C88.472 19.3908 87.4473 18.4508 85.6128 18.4508C83.7783 18.4508 82.7409 19.4043 82.7409 21.1365V25.2994C82.7409 27.0585 83.7657 27.9851 85.6128 27.9851C87.4599 27.9851 88.472 27.0183 88.472 25.2994V21.1365Z" fill="#394149"/>
<path d="M96.569 16.8394C96.569 16.544 96.6576 16.45 96.9359 16.45H97.5179C97.7962 16.45 97.8595 16.544 97.8595 16.8394V29.5697C97.8595 29.8652 97.8595 29.9592 97.5179 29.9592H96.9359C96.6576 29.9592 96.569 29.8652 96.569 29.5697V16.8394Z" fill="#394149"/>
<path d="M109.385 16.45C110.439 16.45 111.449 16.8942 112.194 17.685C112.939 18.4757 113.358 19.5483 113.358 20.6666C113.358 21.7849 112.939 22.8575 112.194 23.6481C111.449 24.4389 110.439 24.8832 109.385 24.8832H105.59V29.5697C105.59 29.8652 105.526 29.9592 105.261 29.9592H104.666C104.4 29.9592 104.299 29.8652 104.299 29.5697V16.8394C104.299 16.544 104.4 16.45 104.666 16.45H109.385ZM109.271 23.5537C109.633 23.5537 109.992 23.478 110.327 23.3309C110.661 23.1838 110.965 22.9681 111.221 22.6963C111.477 22.4245 111.681 22.1017 111.819 21.7466C111.958 21.3915 112.029 21.0108 112.029 20.6263C112.029 20.2418 111.958 19.8611 111.819 19.506C111.681 19.1509 111.477 18.8281 111.221 18.5563C110.965 18.2845 110.661 18.0688 110.327 17.9216C109.992 17.7746 109.633 17.6989 109.271 17.6989H105.476V23.5537H109.271Z" fill="#394149"/>
<path d="M123.238 16.1814C124.215 16.067 125.201 16.2901 126.049 16.8174C126.896 17.3449 127.561 18.1484 127.945 19.1088C128.046 19.3237 127.945 19.4983 127.742 19.6057L127.186 19.8743C126.958 19.9683 126.869 19.9548 126.73 19.6997C126.444 18.9869 125.951 18.3893 125.323 17.9935C124.695 17.5976 123.965 17.4238 123.238 17.4974C121.1 17.4974 119.936 18.3971 119.936 20.0086C119.924 20.501 120.08 20.9817 120.375 21.3618C120.67 21.7418 121.085 21.9957 121.543 22.0766C122.224 22.3121 122.929 22.4565 123.643 22.5063C124.508 22.5552 125.361 22.7407 126.174 23.0568C126.797 23.2662 127.334 23.6967 127.693 24.2763C128.052 24.8559 128.213 25.5491 128.147 26.2394C128.147 28.7506 126.427 30.268 123.264 30.268C122.226 30.394 121.18 30.1388 120.298 29.545C119.416 28.9513 118.753 28.0547 118.418 27.0048C118.396 26.957 118.384 26.9045 118.383 26.8511C118.382 26.7976 118.392 26.7447 118.412 26.696C118.433 26.6472 118.463 26.6039 118.502 26.5691C118.54 26.5342 118.585 26.5088 118.633 26.4946L119.19 26.2797C119.234 26.2606 119.281 26.2515 119.328 26.2528C119.376 26.2542 119.422 26.266 119.465 26.2875C119.508 26.309 119.546 26.3396 119.577 26.3776C119.608 26.4156 119.631 26.4599 119.645 26.508C119.928 27.2666 120.432 27.9098 121.082 28.3445C121.733 28.779 122.497 28.9825 123.264 28.9251C125.655 28.9251 126.831 28.0388 126.831 26.2394C126.854 25.7665 126.718 25.3004 126.446 24.9241C126.175 24.548 125.787 24.286 125.351 24.1848C124.697 23.9776 124.022 23.8514 123.34 23.8088L121.973 23.6208C121.546 23.5246 121.123 23.4034 120.708 23.2583C120.298 23.1268 119.916 22.9125 119.582 22.6271C119.246 22.3046 118.982 21.9076 118.807 21.4644C118.632 21.0211 118.551 20.5425 118.57 20.0623C118.659 17.7123 120.316 16.1814 123.238 16.1814Z" fill="#394149"/>
<path d="M134.966 25.3666C135.019 26.3163 135.413 27.2083 136.066 27.8605C136.719 28.5128 137.581 28.8759 138.477 28.8759C139.373 28.8759 140.236 28.5128 140.889 27.8605C141.541 27.2083 141.934 26.3163 141.988 25.3666V16.8394C141.988 16.544 142.076 16.45 142.355 16.45H142.937C143.215 16.45 143.304 16.544 143.304 16.8394V25.3532C143.304 28.4014 141.608 30.2412 138.483 30.2412C135.359 30.2412 133.663 28.4014 133.663 25.3532V16.8394C133.663 16.544 133.752 16.45 134.017 16.45H134.612C134.878 16.45 134.966 16.544 134.966 16.8394V25.3666Z" fill="#394149"/>
<path d="M160.763 16.45C161.041 16.45 161.13 16.544 161.13 16.8394V29.5697C161.13 29.8651 161.041 29.9591 160.763 29.9591H160.231C159.966 29.9591 159.877 29.8651 159.877 29.5697V21.8214C159.877 20.6941 159.949 19.568 160.092 18.4508H160.016C159.622 19.4724 159.16 20.4639 158.637 21.4186L155.917 26.508C155.884 26.5963 155.826 26.6718 155.752 26.7246C155.677 26.7772 155.59 26.8048 155.5 26.8034H155.146C155.054 26.8039 154.966 26.7762 154.889 26.7238C154.813 26.6713 154.752 26.5963 154.715 26.508L151.957 21.3648C151.468 20.4239 151.045 19.4454 150.692 18.4374H150.616C150.745 19.5647 150.814 20.6992 150.819 21.8348V29.5697C150.819 29.8651 150.73 29.9591 150.452 29.9591H149.958C149.68 29.9591 149.591 29.8651 149.591 29.5697V16.8394C149.591 16.544 149.68 16.45 149.958 16.45H150.414C150.518 16.4398 150.623 16.4638 150.712 16.5191C150.804 16.5745 150.876 16.6583 150.92 16.7588L155.348 25.1114L159.751 16.8394C159.89 16.5574 159.966 16.5171 160.244 16.5171L160.763 16.45Z" fill="#394149"/>
<path d="M16.1054 27.918V37.6269C16.1054 37.9991 15.9661 38.356 15.7181 38.6191C15.4703 38.8823 15.134 39.0301 14.7833 39.0301C14.4327 39.0301 14.0964 38.8823 13.8485 38.6191C13.6005 38.356 13.4612 37.9991 13.4612 37.6269V27.9314C13.8294 28.2168 14.2707 28.376 14.7264 28.388C15.2231 28.403 15.7098 28.2372 16.1054 27.918ZM27.3652 25.1114C27.0297 25.1114 26.7079 25.253 26.4706 25.5047C26.2334 25.7565 26.1001 26.0982 26.1001 26.4543V28.1463C26.1001 28.5185 26.2394 28.8755 26.4873 29.1385C26.7352 29.4017 27.0715 29.5496 27.4222 29.5496C27.7729 29.5496 28.1091 29.4017 28.357 29.1385C28.605 28.8755 28.7442 28.5185 28.7442 28.1463V26.5214C28.7541 26.3289 28.7248 26.1363 28.6582 25.9569C28.5917 25.7775 28.4896 25.6153 28.3586 25.4815C28.2278 25.3478 28.0713 25.2454 27.9 25.1815C27.7286 25.1177 27.5461 25.0938 27.3652 25.1114ZM10.5893 31.5974C10.1341 31.5829 9.69338 31.4239 9.32417 31.1409V40.8766C9.32417 41.2506 9.46412 41.6092 9.71325 41.8736C9.96237 42.138 10.3003 42.2866 10.6526 42.2866C11.0049 42.2866 11.3428 42.138 11.5919 41.8736C11.841 41.6092 11.981 41.2506 11.981 40.8766V31.208C11.5679 31.4915 11.0804 31.6279 10.5893 31.5974ZM23.2408 22.1974C23.0694 22.1883 22.8981 22.2164 22.7372 22.2797C22.5764 22.3431 22.4294 22.4406 22.305 22.5662C22.1808 22.6919 22.082 22.8429 22.0144 23.0104C21.947 23.1778 21.9122 23.3582 21.9124 23.5403V31.02C21.9124 31.394 22.0524 31.7527 22.3015 32.0171C22.5507 32.2815 22.8885 32.43 23.2408 32.43C23.5932 32.43 23.9311 32.2815 24.1802 32.0171C24.4293 31.7527 24.5692 31.394 24.5692 31.02V23.6343C24.5794 23.4405 24.5498 23.2467 24.4825 23.0662C24.4151 22.8858 24.3119 22.7229 24.1796 22.5889C24.0472 22.4548 23.8892 22.3528 23.7163 22.2899C23.5433 22.227 23.3595 22.2045 23.1776 22.2243L23.2408 22.1974ZM19.0405 25.0711C18.5639 25.0676 18.1001 24.9082 17.7121 24.6146V34.3771C17.7121 34.7511 17.852 35.1098 18.1012 35.3742C18.3504 35.6386 18.6882 35.7871 19.0405 35.7871C19.3929 35.7871 19.7307 35.6386 19.9799 35.3742C20.229 35.1098 20.3689 34.7511 20.3689 34.3771V24.628C19.9676 24.9453 19.4776 25.1108 18.9773 25.098L19.0405 25.0711ZM7.71743 32.5508V5.27742C7.7141 4.94497 7.58733 4.62736 7.36466 4.39353C7.142 4.15969 6.84141 4.02855 6.52818 4.02856H6.24985C5.93662 4.02855 5.63604 4.15969 5.41337 4.39353C5.1907 4.62736 5.06394 4.94497 5.06061 5.27742V32.5508C5.06061 32.8856 5.18591 33.2067 5.40893 33.4434C5.63195 33.6802 5.93445 33.8131 6.24985 33.8131H6.52818C6.8436 33.8131 7.14608 33.6802 7.3691 33.4434C7.59214 33.2067 7.71743 32.8856 7.71743 32.5508ZM10.7285 30.5634H10.4502C10.1348 30.5634 9.83225 30.4305 9.60923 30.1937C9.38621 29.957 9.26091 29.6359 9.26091 29.3011V8.52714C9.26425 8.1947 9.39101 7.87706 9.61367 7.64324C9.83634 7.40941 10.1369 7.27827 10.4502 7.27828H10.7285C11.0417 7.27827 11.3423 7.40941 11.565 7.64324C11.7876 7.87706 11.9144 8.1947 11.9177 8.52714V29.328C11.9177 29.6628 11.7924 29.9838 11.5694 30.2206C11.3464 30.4573 11.0439 30.5903 10.7285 30.5903V30.5634ZM14.9161 27.3674H14.6252C14.3132 27.3674 14.0138 27.2358 13.7932 27.0016C13.5725 26.7674 13.4486 26.4498 13.4486 26.1186V11.75C13.4469 11.5849 13.4761 11.421 13.5345 11.2679C13.5928 11.1149 13.6792 10.9756 13.7886 10.8582C13.8981 10.7408 14.0284 10.6476 14.172 10.584C14.3156 10.5204 14.4695 10.4877 14.6252 10.4877H14.9161C15.2294 10.4913 15.5286 10.6258 15.7489 10.8621C15.9693 11.0985 16.0927 11.4175 16.0927 11.75V26.1186C16.0927 26.4498 15.9687 26.7674 15.7481 27.0016C15.5275 27.2358 15.2283 27.3674 14.9161 27.3674ZM19.1038 24.0774H18.8381C18.5249 24.0774 18.2243 23.9464 18.0016 23.7124C17.7789 23.4786 17.6522 23.1611 17.6489 22.8286V15.0937C17.6385 14.9213 17.6615 14.7485 17.7167 14.5858C17.7717 14.4234 17.8577 14.2744 17.9692 14.1486C18.0807 14.0226 18.2153 13.9225 18.3648 13.854C18.5142 13.7856 18.6753 13.7504 18.8381 13.7508H19.1164C19.4318 13.7508 19.7343 13.8838 19.9574 14.1205C20.1804 14.3573 20.3057 14.6784 20.3057 15.0131V22.8017C20.3073 22.9686 20.2779 23.1342 20.2188 23.2889C20.1598 23.4436 20.0725 23.5843 19.9618 23.703C19.8512 23.8216 19.7197 23.9157 19.5744 23.9801C19.4293 24.0444 19.2737 24.0774 19.1164 24.0774H19.1038ZM23.3041 21.1903H23.0258C22.7104 21.1903 22.4079 21.0573 22.1848 20.8206C21.9618 20.5838 21.8365 20.2628 21.8365 19.928V17.9271C21.8398 17.5946 21.9666 17.2771 22.1892 17.0433C22.4119 16.8093 22.7125 16.6783 23.0258 16.6783H23.3041C23.6173 16.6783 23.9179 16.8093 24.1406 17.0433C24.3633 17.2771 24.49 17.5946 24.4933 17.9271V19.928C24.4933 20.2605 24.3699 20.5795 24.1495 20.8159C23.9292 21.0522 23.63 21.1868 23.3167 21.1903H23.3041Z" fill="#394149"/>
</svg>
